<?xml version="1.0" encoding="UTF-8" standalone="no"?>
<!DOCTYPE svg PUBLIC "-//W3C//DTD SVG 1.1//EN"
 "http://www.w3.org/Graphics/SVG/1.1/DTD/svg11.dtd">
<!-- Generated by graphviz version 2.40.1 (20161225.0304)
 -->
<!-- Title: G Pages: 1 -->
<svg width="437pt" height="50pt"
 viewBox="0.00 0.00 437.41 49.80" xmlns="http://www.w3.org/2000/svg" xmlns:xlink="http://www.w3.org/1999/xlink">
<g id="graph0" class="graph" transform="scale(1 1) rotate(0) translate(4 45.8)">
<title>G</title>
<polygon fill="#ffffff" stroke="transparent" points="-4,4 -4,-45.8 433.4082,-45.8 433.4082,4 -4,4"/>
<!-- curl -->
<g id="node1" class="node">
<title>curl</title>
<polygon fill="none" stroke="#000000" points="54,-39 0,-39 0,-3 54,-3 54,-39"/>
<text text-anchor="middle" x="27" y="-16.8" font-family="Times,serif" font-size="14.00" fill="#000000">curl</text>
</g>
<!-- TCPHTTP\nServer -->
<g id="node2" class="node">
<title>TCPHTTP\nServer</title>
<polygon fill="none" stroke="#000000" points="258.6494,-41.6019 186.3156,-41.6019 182.3156,-37.6019 182.3156,-.3981 254.6494,-.3981 258.6494,-4.3981 258.6494,-41.6019"/>
<polyline fill="none" stroke="#000000" points="254.6494,-37.6019 182.3156,-37.6019 "/>
<polyline fill="none" stroke="#000000" points="254.6494,-37.6019 254.6494,-.3981 "/>
<polyline fill="none" stroke="#000000" points="254.6494,-37.6019 258.6494,-41.6019 "/>
<text text-anchor="middle" x="220.4825" y="-25.2" font-family="Times,serif" font-size="14.00" fill="#000000">TCPHTTP</text>
<text text-anchor="middle" x="220.4825" y="-8.4" font-family="Times,serif" font-size="14.00" fill="#000000">Server</text>
</g>
<!-- curl&#45;&gt;TCPHTTP\nServer -->
<g id="edge1" class="edge">
<title>curl&#45;&gt;TCPHTTP\nServer</title>
<path fill="none" stroke="#000000" d="M54.311,-21C84.7798,-21 134.6692,-21 171.8455,-21"/>
<polygon fill="#000000" stroke="#000000" points="171.9674,-24.5001 181.9673,-21 171.9673,-17.5001 171.9674,-24.5001"/>
<text text-anchor="middle" x="118.0747" y="-25.2" font-family="Times,serif" font-size="14.00" fill="#000000">HTTP Request</text>
</g>
<!-- TCPHTTP\nServer&#45;&gt;curl -->
<g id="edge2" class="edge">
<title>TCPHTTP\nServer&#45;&gt;curl</title>
<path fill="none" stroke="#000000" d="M181.9673,-21C147.9079,-21 98.5151,-21 64.7024,-21"/>
<polygon fill="#000000" stroke="#000000" points="64.311,-17.5001 54.311,-21 64.3109,-24.5001 64.311,-17.5001"/>
<text text-anchor="middle" x="118.0747" y="-4.2" font-family="Times,serif" font-size="14.00" fill="#000000">HTTP Response</text>
</g>
<!-- example.com:80 -->
<g id="node3" class="node">
<title>example.com:80</title>
<polygon fill="none" stroke="#000000" points="429.3686,-39 324.527,-39 320.527,-35 320.527,-3 425.3686,-3 429.3686,-7 429.3686,-39"/>
<polyline fill="none" stroke="#000000" points="425.3686,-35 320.527,-35 "/>
<polyline fill="none" stroke="#000000" points="425.3686,-35 425.3686,-3 "/>
<polyline fill="none" stroke="#000000" points="425.3686,-35 429.3686,-39 "/>
<text text-anchor="middle" x="374.9478" y="-16.8" font-family="Times,serif" font-size="14.00" fill="#000000">example.com:80</text>
</g>
<!-- TCPHTTP\nServer&#45;&gt;example.com:80 -->
<g id="edge3" class="edge">
<title>TCPHTTP\nServer&#45;&gt;example.com:80</title>
<path fill="none" stroke="#000000" d="M269.0414,-21C282.0152,-21 296.247,-21 309.9514,-21"/>
<polygon fill="#000000" stroke="#000000" points="268.665,-17.5001 258.6649,-21 268.6649,-24.5001 268.665,-17.5001"/>
<polygon fill="#000000" stroke="#000000" points="310.299,-24.5001 320.2989,-21 310.2989,-17.5001 310.299,-24.5001"/>
<text text-anchor="middle" x="289.6515" y="-25.2" font-family="Times,serif" font-size="14.00" fill="#000000">TCP</text>
</g>
</g>
</svg>